<svg xmlns="http://www.w3.org/2000/svg" xmlns:xlink="http://www.w3.org/1999/xlink" version="1.1" id="Layer_1" x="0px" y="0px" viewBox="5.0 -10.0 100.0 135.0" enable-background="new 0 0 100 100" xml:space="preserve" height="100px" width="100px">
<path d="M82.229,9.388l-2.076-1.252l-1.544,2.56l1.544-2.56l-2.076-1.252l-1.878,3.114l2.076,1.252l-14.15,23.458  c-0.614-1.001-1.465-1.877-2.538-2.524L44.325,21.771c-1.186-0.715-2.54-1.093-3.918-1.093c-2.689,0-5.124,1.374-6.513,3.675  L7.706,67.77c-1.968,3.263-2.548,7.097-1.633,10.796c0.916,3.699,3.217,6.819,6.479,8.788l11.021,6.647  c1.213,0.732,2.591,1.124,3.998,1.165c0.482,1.316,1.293,2.355,2.458,3.058c0.972,0.586,2.086,0.896,3.223,0.896  c2.167,0,4.198-1.136,5.301-2.965c0.852-1.412,1.112-3.063,0.733-4.648c-0.351-1.467-1.231-2.705-2.464-3.56l27.345-45.334  c1.002-1.661,1.283-3.555,0.949-5.327l0.208,0.125L82.229,9.388z M7.88,78.118c-0.796-3.217-0.292-6.551,1.42-9.388l26.188-43.417  c1.048-1.737,2.888-2.775,4.919-2.775c1.039,0,2.062,0.286,2.957,0.826l7.783,4.695l-35.56,58.952l-2.074-1.251  C10.677,84.049,8.676,81.335,7.88,78.118z M36.477,94.903c-0.677,1.122-1.882,1.793-3.225,1.793c-0.695,0-1.377-0.189-1.971-0.548  c-0.386-0.232-0.706-0.521-0.964-0.872c2.201-0.562,4.065-1.875,5.161-3.692l0.646-1.072c0.388,0.441,0.664,0.973,0.804,1.559  C37.158,93.033,36.998,94.039,36.477,94.903z M62.574,41.895L34.911,88h-0.043l-0.037-0.112l-1.57,2.481  c-0.542,0.9-1.281,1.56-2.139,2.083c-0.794,0.405-1.696,0.638-2.663,0.711l-1.478,0.097l0.006,0.014  c-0.864-0.114-1.7-0.407-2.454-0.863l-6.87-4.146l35.56-58.953l7.401,4.585C63.333,35.532,64.208,39.186,62.574,41.895z"/>
<text x="0.0" y="117.5" font-size="5.0" font-weight="bold" font-family="Helvetica Neue, Helvetica, Arial-Unicode, Arial, Sans-serif" fill="#000000">Created by Rohan Gupta</text><text x="0.0" y="122.5" font-size="5.0" font-weight="bold" font-family="Helvetica Neue, Helvetica, Arial-Unicode, Arial, Sans-serif" fill="#000000">from the Noun Project</text></svg>